<?xml version="1.0" standalone="no"?>
<!DOCTYPE svg PUBLIC "-//W3C//DTD SVG 20010904//EN"
 "http://www.w3.org/TR/2001/REC-SVG-20010904/DTD/svg10.dtd">
<svg version="1.0" xmlns="http://www.w3.org/2000/svg"
 width="203.000000pt" height="203.000000pt" viewBox="0 0 203.000000 203.000000"
 preserveAspectRatio="xMidYMid meet">
<metadata>
Created by potrace 1.11, written by Peter Selinger 2001-2013
</metadata>
<g transform="translate(0.000000,203.000000) scale(0.100000,-0.100000)"
fill="#000000" stroke="none">
<path d="M823 1506 c-35 -7 -66 -16 -70 -21 -5 -4 0 -5 10 -2 50 18 243 25
402 14 68 -4 83 -3 60 4 -46 16 -330 19 -402 5z"/>
<path d="M791 1444 c-40 -7 -85 -18 -100 -23 -29 -11 -34 -12 124 8 105 13
318 10 425 -5 109 -15 138 -16 95 -3 -119 37 -397 48 -544 23z"/>
<path d="M815 1390 c-73 -11 -245 -51 -245 -57 0 -3 15 -2 33 1 202 44 475 52
692 22 66 -9 129 -19 140 -22 16 -4 17 -3 5 4 -8 6 -49 17 -90 26 -41 9 -88
19 -105 22 -45 10 -372 13 -430 4z"/>
<path d="M780 1329 c-25 -4 -58 -9 -75 -12 -55 -9 -210 -50 -219 -58 -4 -4 11
-3 35 2 128 29 343 52 494 52 77 1 258 -11 296 -18 50 -11 144 -18 137 -11
-36 40 -505 71 -668 45z"/>
<path d="M1666 1293 c-5 -6 -2 -63 9 -142 3 -21 20 -24 60 -11 47 15 49 45 3
36 -32 -6 -33 -5 -36 32 -1 20 -4 46 -7 57 -2 11 -4 23 -4 28 -1 9 -15 9 -25
0z"/>
<path d="M770 1271 c-30 -5 -77 -11 -105 -15 -54 -7 -246 -54 -254 -61 -7 -7
2 -6 122 14 183 32 220 34 507 36 316 2 329 3 280 17 -45 12 -478 19 -550 9z"/>
<path d="M1535 1250 c-4 -6 -4 -27 -1 -48 3 -20 7 -54 8 -74 2 -42 4 -43 59
-26 50 14 54 43 6 35 -32 -5 -33 -4 -36 31 -3 33 -6 64 -10 85 -2 11 -19 9
-26 -3z"/>
<path d="M1455 1229 c-7 -11 2 -146 11 -160 8 -14 33 2 30 19 -2 9 -7 47 -11
85 -6 63 -16 80 -30 56z"/>
<path d="M720 1210 c-25 -4 -70 -10 -100 -14 -60 -7 -218 -40 -265 -55 -40
-12 -4 -14 50 -2 22 5 69 12 105 16 36 4 67 8 70 10 9 5 243 17 400 20 109 2
167 8 195 19 38 14 27 15 -185 14 -124 -1 -245 -5 -270 -8z"/>
<path d="M1384 1210 c-11 -4 -27 -22 -34 -39 -15 -37 -30 -40 -30 -6 0 16 -6
25 -15 25 -17 0 -19 -31 -9 -117 6 -42 10 -53 25 -53 16 0 18 6 13 43 l-6 42
34 -32 c24 -24 37 -30 48 -23 12 8 9 15 -18 38 l-34 29 26 52 c15 28 25 51 24
50 -2 0 -12 -4 -24 -9z"/>
<path d="M989 1166 c-2 -2 -80 -6 -174 -10 -93 -4 -183 -9 -200 -11 -16 -2
-55 -6 -85 -10 -30 -3 -62 -8 -70 -10 -8 -3 -33 -7 -55 -10 -69 -8 -150 -28
-160 -38 -7 -7 -7 -8 0 -5 11 6 68 14 160 23 33 3 78 8 100 10 22 2 121 7 219
11 171 7 308 30 280 47 -6 3 -13 5 -15 3z"/>
<path d="M1163 1148 c-12 -6 -24 -19 -27 -31 -6 -24 9 -57 27 -58 22 -1 49 -7
54 -13 11 -11 -11 -28 -33 -23 -12 2 -29 0 -36 -5 -10 -7 -9 -12 6 -23 28 -21
51 -19 82 8 22 19 26 29 20 50 -5 22 -14 28 -46 33 -24 4 -40 12 -40 20 0 15
10 17 48 14 24 -2 29 9 10 28 -14 14 -35 14 -65 0z"/>
<path d="M617 1094 c-1 -1 -42 -4 -91 -8 -105 -7 -367 -36 -381 -41 -5 -2 46
-2 115 1 69 2 193 7 275 9 113 3 165 9 210 24 l60 20 -93 -2 c-51 0 -94 -2
-95 -3z"/>
<path d="M1715 1090 c-2 -3 12 -7 31 -8 19 -2 34 -1 34 2 0 7 -61 13 -65 6z"/>
<path d="M912 1075 c-84 -36 -72 -165 15 -165 73 0 121 95 76 148 -25 28 -53
33 -91 17z m68 -46 c26 -47 -36 -111 -75 -79 -20 17 -19 59 2 82 22 24 60 23
73 -3z"/>
<path d="M1620 1061 c-11 -8 -3 -11 35 -11 28 -1 88 -4 135 -7 89 -5 107 1 30
11 -112 14 -186 17 -200 7z"/>
<path d="M336 1033 c-1 -1 -59 -4 -129 -6 -70 -2 -130 -7 -134 -12 -5 -4 0 -5
10 -2 10 4 17 1 17 -6 0 -8 2 -9 8 -1 4 6 16 10 27 8 11 -2 99 -4 195 -5 132
-1 186 3 220 14 44 15 43 15 -83 13 -71 0 -129 -2 -131 -3z"/>
<path d="M777 1034 c-5 -5 -2 -51 8 -119 1 -11 3 -26 4 -32 0 -7 8 -13 17 -13
14 0 15 10 9 78 -4 42 -9 80 -12 85 -5 8 -17 9 -26 1z"/>
<path d="M1489 1023 c-29 -8 -55 -16 -58 -19 -4 -3 93 -2 214 2 121 4 237 7
257 8 20 0 34 4 31 9 -3 5 -11 6 -18 3 -8 -3 -16 0 -19 7 -2 7 -5 8 -5 1 -1
-7 -24 -9 -63 -7 -198 9 -290 8 -339 -4z"/>
<path d="M180 997 c6 -5 55 -14 141 -23 34 -4 64 -2 75 5 16 9 13 11 -21 11
-22 1 -76 4 -120 7 -44 3 -78 3 -75 0z"/>
<path d="M612 989 c-23 -9 -23 -12 -17 -82 4 -39 11 -76 16 -81 5 -6 24 -5 49
3 72 21 100 101 53 153 -17 19 -63 23 -101 7z m85 -41 c13 -28 1 -63 -26 -77
-31 -17 -37 -13 -39 26 -2 20 -5 40 -8 44 -5 9 25 28 47 29 9 0 20 -10 26 -22z"/>
<path d="M1707 993 c-1 0 -85 -4 -187 -7 -149 -4 -197 -9 -245 -26 l-60 -20
125 5 c69 3 150 7 180 10 30 3 87 7 125 10 39 4 77 8 85 10 8 2 40 7 70 10 30
4 57 9 59 11 4 4 -148 1 -152 -3z"/>
<path d="M521 961 c-10 -6 -11 -23 -7 -66 7 -58 -2 -85 -30 -85 -14 0 -20 18
-28 83 -5 44 -10 52 -26 42 -14 -8 -4 -123 12 -142 14 -18 59 -16 86 3 21 14
23 23 20 86 -3 78 -7 91 -27 79z"/>
<path d="M1788 963 c7 -3 16 -2 19 1 4 3 -2 6 -13 5 -11 0 -14 -3 -6 -6z"/>
<path d="M240 956 c0 -2 16 -6 35 -8 19 -2 35 0 35 4 0 4 -16 8 -35 8 -19 0
-35 -2 -35 -4z"/>
<path d="M1655 948 c-71 -10 -156 -16 -350 -23 -154 -6 -305 -28 -290 -43 6
-7 216 -4 295 4 132 12 225 23 290 35 30 6 72 12 93 15 20 3 47 9 60 14 19 8
17 9 -13 7 -20 -1 -58 -5 -85 -9z"/>
<path d="M1625 900 c-22 -4 -69 -11 -105 -15 -36 -4 -73 -9 -82 -10 -38 -8
-221 -17 -383 -20 -122 -2 -181 -8 -210 -19 -38 -14 -29 -15 175 -14 284 1
448 19 635 72 54 15 35 19 -30 6z"/>
<path d="M286 878 c-3 -13 -12 -53 -20 -91 -8 -37 -11 -69 -7 -71 10 -6 26 6
33 25 8 20 61 36 66 20 2 -6 13 -11 24 -11 22 0 23 -2 -18 88 -23 49 -33 62
-51 62 -15 0 -24 -7 -27 -22z m43 -79 c-20 -12 -26 -3 -21 32 l5 32 14 -28
c12 -22 13 -29 2 -36z"/>
<path d="M1555 840 c-61 -12 -104 -19 -170 -26 -33 -3 -71 -8 -85 -11 -14 -4
-159 -7 -322 -7 -163 -1 -299 -4 -303 -8 -13 -13 148 -25 345 -25 214 -1 331
12 509 55 110 27 128 42 26 22z"/>
<path d="M1505 779 c-35 -10 -200 -35 -299 -45 -128 -12 -400 -6 -486 11 -53
11 -155 17 -148 10 5 -5 50 -17 100 -27 104 -22 474 -34 563 -19 28 5 70 12
95 15 53 7 187 43 209 56 20 12 6 11 -34 -1z"/>
<path d="M630 690 c36 -11 115 -27 175 -36 193 -29 507 -6 625 46 l25 10 -25
-4 c-253 -48 -520 -54 -740 -17 -30 6 -71 12 -90 16 -19 3 -6 -4 30 -15z"/>
<path d="M695 620 c17 -6 41 -12 55 -15 14 -2 48 -9 75 -14 86 -17 378 -6 465
18 67 18 70 19 25 14 -27 -3 -77 -9 -110 -13 -62 -8 -370 -6 -415 3 -14 3 -47
8 -75 11 -41 4 -45 4 -20 -4z"/>
<path d="M760 552 c60 -38 473 -35 508 3 4 5 -1 5 -11 2 -69 -25 -395 -26
-492 -1 -16 4 -17 3 -5 -4z"/>
</g>
</svg>
